<svg xmlns="http://www.w3.org/2000/svg" viewBox="0 0 32 32" width="32" height="32">
  <defs>
    <linearGradient id="bg" x1="0%" y1="0%" x2="100%" y2="100%">
      <stop offset="0%" style="stop-color:#3b82f6"/>
      <stop offset="100%" style="stop-color:#1d4ed8"/>
    </linearGradient>
  </defs>
  
  <!-- Background -->
  <rect width="32" height="32" rx="6" fill="url(#bg)"/>
  
  <!-- Image frame -->
  <rect x="6" y="8" width="20" height="14" rx="1.5" fill="white" opacity="0.95"/>
  <rect x="7" y="9" width="18" height="12" rx="1" fill="#f3f4f6"/>
  
  <!-- Mountain landscape -->
  <path d="M8 19 L11 16 L14 17 L17 14 L20 16 L23 13 L24 14 L24 20 L8 20 Z" fill="#9ca3af" opacity="0.6"/>
  
  <!-- Sun -->
  <circle cx="21" cy="12" r="1.5" fill="#fbbf24"/>
  
  <!-- Conversion arrow -->
  <path d="M10 24 Q16 26 22 24" stroke="#10b981" stroke-width="2" fill="none" stroke-linecap="round"/>
  <path d="M21 23 L22 24 L21 25" stroke="#10b981" stroke-width="1.5" fill="none" stroke-linecap="round"/>
  
  <!-- Format dots -->
  <circle cx="8" cy="28" r="1" fill="#ef4444"/>
  <circle cx="12" cy="28" r="1" fill="#f59e0b"/>
  <circle cx="16" cy="28" r="1" fill="#10b981"/>
  <circle cx="20" cy="28" r="1" fill="#3b82f6"/>
  <circle cx="24" cy="28" r="1" fill="#8b5cf6"/>
</svg>
